<?xml version="1.0" encoding="utf-8"?>
<!-- Generator: Adobe Illustrator 23.1.0, SVG Export Plug-In . SVG Version: 6.00 Build 0)  -->
<svg version="1.1" id="Layer_1" xmlns="http://www.w3.org/2000/svg" xmlns:xlink="http://www.w3.org/1999/xlink" x="0px" y="0px"
	 viewBox="0 0 864 151.38" style="enable-background:new 0 0 864 151.38;" xml:space="preserve">
<style type="text/css">
	.st0{opacity:0.7;}
	.st1{fill-rule:evenodd;clip-rule:evenodd;fill:#E6E7E8;}
	.st2{fill-rule:evenodd;clip-rule:evenodd;fill:#D6D6D6;}
	.st3{fill-rule:evenodd;clip-rule:evenodd;fill:#FFFFFF;}
	.st4{fill-rule:evenodd;clip-rule:evenodd;fill:#ECECEC;}
	.st5{fill-rule:evenodd;clip-rule:evenodd;fill:#000002;}
	.st6{fill-rule:evenodd;clip-rule:evenodd;fill:#B01D22;}
	.st7{fill-rule:evenodd;clip-rule:evenodd;fill:#E74E3D;}
	.st8{fill-rule:evenodd;clip-rule:evenodd;fill:#2981BA;}
	.st9{font-family:'URWDIN-Black';}
	.st10{font-size:29.3557px;}
	.st11{font-family:'URWDIN-Thin';}
	.st12{fill:none;stroke:#A7A9AC;stroke-width:0.75;stroke-linecap:round;stroke-miterlimit:10;}
</style>
<g class="st0">
	<polygon class="st1" points="238.35,119.33 247.69,100.48 241.18,104.83 223.59,116.55 232.98,97.65 236.58,90.4 230.49,85.07 
		213.98,70.62 239.78,70.69 246.33,70.71 249.22,64.83 260.74,41.45 263.29,61.54 264.05,67.48 272.47,50.49 266.76,5.49 
		239.8,60.19 185.95,60.05 223.58,92.98 196.68,147.11 238.35,119.33 	"/>
	<path class="st1" d="M232.76,45.97l8.55-17.35C190.37,40.1,122.15-2.01,49.69,37.87C164.18,16.82,180.62,55.16,232.76,45.97
		L232.76,45.97z M185.97,140.35l8.73-17.56C143.43,136.81,73.9,92.11-0.05,132.81C116.58,111.37,131.45,151.56,185.97,140.35
		L185.97,140.35z M174.65,66.9l-21.61-18.91C117.32,42.67,77.96,39.2,37.25,61.6C113.17,47.65,145.96,59.8,174.65,66.9L174.65,66.9z
		 M197.69,116.75l8.7-17.51c-51.19,13.4-120.41-30.68-194.01,9.83C128.5,87.72,143.76,127.47,197.69,116.75L197.69,116.75z
		 M205.43,93.84l-18.27-15.99c-46.5-2.85-103-25.18-162.35,7.48C137.5,64.62,155.2,101.43,205.43,93.84L205.43,93.84z"/>
</g>
<g class="st0">
	<path class="st2" d="M649.84,2.78c12.16,0,22.11,9.89,22.11,21.98v16.82c1.28,0.45,2.44,1.17,3.42,2.08
		c0.09,0.08,0.18,0.16,0.27,0.24c1.77,1.77,2.87,4.22,2.87,6.92c0,2.57-1.01,4.91-2.64,6.66c-0.07,0.09-0.15,0.17-0.23,0.25
		c-1.04,1.04-2.32,1.85-3.74,2.34v12.91l33.9,51.24l-0.01,0c0.19,0.28,0.34,0.59,0.44,0.93c0.89,2.79,1.39,5.64,1.39,8.29
		c0,3.1-0.67,6.04-2.16,8.53c-1.57,2.62-4,4.65-7.42,5.75c-1.75,0.56-3.71,0.86-5.9,0.86h-84.65c-2.19,0-4.15-0.31-5.9-0.86
		c-3.43-1.09-5.85-3.12-7.42-5.75c-1.49-2.49-2.16-5.43-2.16-8.53c0-2.58,0.47-5.33,1.32-8.04c0.1-0.41,0.27-0.81,0.52-1.19
		l33.9-51.24V60.08c-1.3-0.45-2.48-1.17-3.47-2.1c-0.09-0.08-0.18-0.16-0.27-0.24c-1.77-1.77-2.87-4.22-2.87-6.92
		c0-2.7,1.1-5.14,2.87-6.92l0.01,0.01l0.01-0.01c1.77-1.77,4.22-2.87,6.9-2.87h33.49V25.07c0-7.97-6.56-14.49-14.57-14.49
		c-8.02,0-14.57,6.52-14.57,14.49v4.72h-3.77l3.77,3.75v3.74h-7.54c0-4.17,0-8.35,0-12.52C627.73,12.67,637.68,2.78,649.84,2.78
		L649.84,2.78L649.84,2.78z"/>
	<path class="st3" d="M607.49,141.11h84.65c1.46,0,2.67-0.17,3.64-0.48c1.54-0.49,2.6-1.36,3.27-2.47c0.75-1.24,1.08-2.87,1.08-4.7
		c0-1.78-0.31-3.66-0.86-5.53l-34.25-51.76c-0.42-0.63-0.62-1.35-0.62-2.06h-0.01V56.87c0-2.07,1.68-3.75,3.74-3.75h0.57
		c0.63,0,1.2-0.26,1.62-0.68c0.04-0.04,0.08-0.08,0.12-0.11c0.35-0.41,0.56-0.93,0.56-1.51c0-0.63-0.26-1.2-0.68-1.62
		c-0.04-0.04-0.08-0.09-0.12-0.13c-0.4-0.34-0.92-0.55-1.5-0.55h-37.79c-0.63,0-1.21,0.26-1.63,0.67l0.01,0.01
		c-0.42,0.42-0.68,0.99-0.68,1.62c0,0.63,0.26,1.2,0.68,1.62c0.04,0.04,0.08,0.08,0.12,0.13c0.4,0.34,0.92,0.55,1.5,0.55h0.57
		c2.07,0,3.74,1.68,3.74,3.75V74.1c0,0.85-0.29,1.64-0.76,2.27l-34.11,51.56c-0.55,1.87-0.86,3.76-0.86,5.54
		c0,1.82,0.33,3.46,1.08,4.7c0.67,1.11,1.73,1.98,3.27,2.47C604.82,140.94,606.03,141.11,607.49,141.11L607.49,141.11z"/>
	<path class="st4" d="M622.61,102.83h15.49c0.31,0.91,0.72,1.78,1.23,2.59c0.8,1.28,1.83,2.4,3.04,3.31v12.36
		c0,2.04,0.84,3.9,2.19,5.25l0.01,0.01c1.35,1.35,3.21,2.19,5.25,2.19l0,0c2.05,0,3.92-0.84,5.27-2.19l-0.01-0.01
		c1.35-1.36,2.19-3.22,2.19-5.26v-12.35c1.2-0.91,2.23-2.04,3.04-3.32c0.5-0.81,0.92-1.68,1.23-2.59h15.49l17.92,27.08
		c0.14,0.55,0.25,1.07,0.33,1.57c0.09,0.6,0.14,1.26,0.14,1.97c0,0.62-0.05,1.15-0.14,1.57c-0.07,0.3-0.15,0.54-0.25,0.71
		c-0.03,0.05-0.08,0.1-0.15,0.15c-0.14,0.1-0.3,0.19-0.5,0.25c-0.22,0.07-0.5,0.13-0.85,0.18c-0.32,0.04-0.78,0.06-1.37,0.06
		l-84.65,0c-0.59,0-1.05-0.02-1.37-0.06c-0.35-0.05-0.63-0.11-0.85-0.18c-0.2-0.06-0.36-0.15-0.5-0.25
		c-0.07-0.05-0.12-0.11-0.15-0.15c-0.1-0.16-0.18-0.41-0.25-0.71c-0.1-0.42-0.14-0.96-0.14-1.57c0-0.71,0.05-1.37,0.14-1.98
		c0.08-0.5,0.19-1.03,0.33-1.58L622.61,102.83L622.61,102.83z"/>
	<path class="st2" d="M649.82,90.14c4.83,0,8.75,3.92,8.75,8.75c0,3.46-2,6.44-4.91,7.86v14.35c0,2.11-1.72,3.83-3.83,3.83l0,0
		c-2.11,0-3.83-1.73-3.83-3.83v-14.35c-2.91-1.42-4.91-4.41-4.91-7.86C641.07,94.05,644.99,90.14,649.82,90.14L649.82,90.14z"/>
</g>
<g>
	<path class="st5" d="M681.87,47.42c4.25,0,7.72,3.45,7.72,7.68v5.88c0.45,0.16,0.85,0.41,1.19,0.72c0.03,0.03,0.06,0.05,0.09,0.08
		c0.62,0.62,1,1.47,1,2.42c0,0.9-0.35,1.72-0.92,2.33c-0.03,0.03-0.05,0.06-0.08,0.09c-0.36,0.36-0.81,0.65-1.31,0.82v4.51
		l11.84,17.89l0,0c0.07,0.1,0.12,0.21,0.16,0.33c0.31,0.98,0.49,1.97,0.49,2.9c0,1.08-0.23,2.11-0.75,2.98
		c-0.55,0.92-1.4,1.63-2.59,2.01c-0.61,0.19-1.29,0.3-2.06,0.3h-29.56c-0.76,0-1.45-0.11-2.06-0.3c-1.2-0.38-2.04-1.09-2.59-2.01
		c-0.52-0.87-0.75-1.9-0.75-2.98c0-0.9,0.17-1.86,0.46-2.81c0.03-0.14,0.09-0.28,0.18-0.42l11.84-17.89v-4.51
		c-0.45-0.16-0.87-0.41-1.21-0.73c-0.03-0.03-0.06-0.05-0.09-0.08c-0.62-0.62-1-1.47-1-2.42c0-0.94,0.38-1.8,1-2.42l0,0l0,0
		c0.62-0.62,1.47-1,2.41-1h11.69V55.2c0-2.78-2.29-5.06-5.09-5.06s-5.09,2.28-5.09,5.06v1.65h-1.32l1.32,1.31v1.31h-2.63
		c0-1.46,0-2.91,0-4.37C674.15,50.87,677.62,47.42,681.87,47.42L681.87,47.42L681.87,47.42z M723.12,86.18
		c0,0.37-0.22,0.59-0.65,0.68c-0.26,0.06-0.6,0.12-1.04,0.16c-0.43,0.04-0.89,0.09-1.38,0.13c-0.49,0.04-0.98,0.08-1.47,0.1
		c-0.5,0.02-0.96,0.03-1.39,0.03c-1.04,0-2.03-0.09-2.99-0.26c-0.96-0.17-1.8-0.51-2.53-1c-0.72-0.5-1.3-1.2-1.73-2.12
		c-0.43-0.92-0.65-2.11-0.65-3.58V63.59c0-0.17,0.07-0.32,0.19-0.45c0.13-0.13,0.28-0.19,0.45-0.19h4.24c0.17,0,0.32,0.06,0.45,0.19
		c0.13,0.13,0.19,0.28,0.19,0.45v16.74c0,0.84,0.16,1.42,0.47,1.73c0.31,0.31,0.85,0.47,1.6,0.47h5.57c0.17,0,0.32,0.07,0.45,0.19
		c0.13,0.13,0.19,0.28,0.19,0.45V86.18L723.12,86.18z M741.18,78.87c0,1.3-0.18,2.46-0.53,3.5c-0.36,1.04-0.87,1.92-1.56,2.64
		c-0.68,0.72-1.52,1.28-2.53,1.68c-1,0.4-2.16,0.6-3.49,0.6c-1.32,0-2.48-0.2-3.49-0.6c-1.01-0.4-1.86-0.96-2.55-1.68
		c-0.69-0.72-1.22-1.6-1.58-2.64c-0.36-1.04-0.53-2.2-0.53-3.5V76.6c0-1.3,0.18-2.46,0.53-3.5c0.36-1.04,0.89-1.92,1.58-2.64
		c0.69-0.72,1.54-1.28,2.55-1.68c1-0.4,2.17-0.6,3.49-0.6c1.32,0,2.48,0.2,3.49,0.6c1.01,0.4,1.85,0.96,2.53,1.68
		c0.69,0.72,1.2,1.6,1.56,2.64c0.36,1.04,0.53,2.2,0.53,3.5V78.87L741.18,78.87z M735.94,76.6c0-2.63-0.95-3.95-2.86-3.95
		c-0.94,0-1.66,0.33-2.16,0.99c-0.49,0.66-0.74,1.65-0.74,2.96v2.27c0,1.32,0.25,2.31,0.74,2.98c0.5,0.67,1.21,1,2.16,1
		c1.91,0,2.86-1.33,2.86-3.98V76.6L735.94,76.6z M756.56,86.05c0,0.24-0.05,0.4-0.16,0.5c-0.11,0.1-0.28,0.18-0.52,0.24
		c-0.45,0.11-1.04,0.22-1.76,0.32c-0.72,0.11-1.57,0.16-2.54,0.16c-2.29,0-4.12-0.7-5.49-2.1c-1.37-1.4-2.05-3.43-2.05-6.09v-2.72
		c0-2.65,0.68-4.68,2.05-6.09c1.37-1.4,3.2-2.1,5.49-2.1c0.97,0,1.82,0.05,2.54,0.16c0.72,0.11,1.31,0.22,1.76,0.32
		c0.24,0.06,0.41,0.15,0.52,0.24c0.11,0.1,0.16,0.26,0.16,0.5v2.88c0,0.17-0.06,0.31-0.18,0.4c-0.12,0.1-0.26,0.15-0.44,0.15h-0.06
		c-0.6-0.06-1.18-0.12-1.73-0.16c-0.55-0.04-1.29-0.06-2.22-0.06c-0.37,0-0.71,0.06-1.04,0.18c-0.32,0.12-0.6,0.32-0.84,0.61
		c-0.24,0.29-0.43,0.68-0.57,1.17c-0.14,0.49-0.21,1.08-0.21,1.8v2.72c0,0.71,0.07,1.31,0.21,1.8c0.14,0.49,0.33,0.87,0.57,1.17
		c0.24,0.29,0.52,0.5,0.84,0.61c0.32,0.12,0.67,0.18,1.04,0.18c0.93,0,1.67-0.02,2.22-0.06c0.55-0.04,1.13-0.1,1.73-0.16h0.06
		c0.17,0,0.32,0.05,0.44,0.15c0.12,0.1,0.18,0.23,0.18,0.4V86.05L756.56,86.05z M775.98,68.8c0,0.11-0.04,0.22-0.13,0.32l-6.02,8.19
		l5.99,9c0.04,0.04,0.06,0.13,0.06,0.26c0,0.28-0.14,0.42-0.42,0.42h-4.89c-0.17,0-0.32-0.03-0.44-0.08
		c-0.12-0.05-0.24-0.18-0.37-0.37l-4.66-7.61v7.38c0,0.17-0.06,0.33-0.19,0.47c-0.13,0.14-0.28,0.21-0.45,0.21h-3.92
		c-0.17,0-0.33-0.07-0.47-0.21c-0.14-0.14-0.21-0.3-0.21-0.47v-23.5c0-0.17,0.07-0.32,0.21-0.45c0.14-0.13,0.3-0.19,0.47-0.19h3.92
		c0.17,0,0.32,0.06,0.45,0.19c0.13,0.13,0.19,0.28,0.19,0.45v13.53l4.92-7.41c0.13-0.19,0.27-0.32,0.42-0.39
		c0.15-0.06,0.29-0.1,0.42-0.1h4.63C775.82,68.44,775.98,68.56,775.98,68.8L775.98,68.8L775.98,68.8z M793.04,86.18
		c0,0.37-0.22,0.59-0.65,0.68c-0.26,0.06-0.6,0.12-1.04,0.16c-0.43,0.04-0.89,0.09-1.38,0.13c-0.49,0.04-0.98,0.08-1.47,0.1
		c-0.5,0.02-0.96,0.03-1.39,0.03c-1.04,0-2.03-0.09-2.99-0.26c-0.96-0.17-1.8-0.51-2.52-1c-0.72-0.5-1.3-1.2-1.73-2.12
		c-0.43-0.92-0.65-2.11-0.65-3.58V63.59c0-0.17,0.06-0.32,0.19-0.45c0.13-0.13,0.28-0.19,0.45-0.19h4.24c0.17,0,0.32,0.06,0.45,0.19
		c0.13,0.13,0.19,0.28,0.19,0.45v16.74c0,0.84,0.16,1.42,0.47,1.73c0.31,0.31,0.85,0.47,1.6,0.47h5.57c0.17,0,0.32,0.07,0.45,0.19
		c0.13,0.13,0.19,0.28,0.19,0.45L793.04,86.18L793.04,86.18z M810.01,86.35c0,0.17-0.06,0.32-0.19,0.45
		c-0.13,0.13-0.28,0.19-0.45,0.19h-3.63c-0.17,0-0.32-0.06-0.45-0.19c-0.13-0.13-0.19-0.28-0.19-0.45v-0.52
		c-0.63,0.45-1.29,0.81-1.99,1.07c-0.7,0.26-1.54,0.39-2.51,0.39c-0.71,0-1.4-0.09-2.06-0.27c-0.66-0.18-1.25-0.49-1.76-0.92
		c-0.52-0.43-0.93-1-1.25-1.72c-0.31-0.71-0.47-1.6-0.47-2.65v-0.29c0-1.9,0.63-3.29,1.89-4.16c1.26-0.87,3.29-1.31,6.07-1.31h1.75
		v-1.17c0-0.93-0.22-1.53-0.65-1.81c-0.43-0.28-1.03-0.42-1.78-0.42c-0.52,0-1.04,0.01-1.57,0.02c-0.53,0.01-1.04,0.03-1.52,0.05
		c-0.49,0.02-0.92,0.05-1.31,0.08c-0.39,0.03-0.71,0.06-0.97,0.08h-0.16c-0.17,0-0.31-0.04-0.42-0.13
		c-0.11-0.09-0.16-0.24-0.16-0.45v-2.62c0-0.37,0.2-0.6,0.61-0.71c0.6-0.15,1.42-0.3,2.44-0.45c1.03-0.15,2.08-0.23,3.16-0.23
		c1.17,0,2.22,0.12,3.16,0.37c0.94,0.25,1.73,0.64,2.38,1.17c0.65,0.53,1.15,1.21,1.51,2.04c0.36,0.83,0.53,1.84,0.53,3.03V86.35
		L810.01,86.35z M804.86,79.06h-1.84c-0.56,0-1.03,0.05-1.39,0.15c-0.37,0.1-0.66,0.24-0.87,0.44c-0.22,0.19-0.37,0.44-0.45,0.74
		c-0.09,0.3-0.13,0.65-0.13,1.04v0.29c0,0.69,0.17,1.13,0.5,1.33c0.33,0.19,0.85,0.29,1.54,0.29c0.5,0,0.97-0.07,1.41-0.21
		c0.44-0.14,0.86-0.31,1.25-0.5V79.06L804.86,79.06z M829.92,79c0,2.63-0.7,4.67-2.09,6.12c-1.39,1.45-3.4,2.17-6.04,2.17
		c-1.25,0-2.48-0.08-3.69-0.24c-1.21-0.16-2.28-0.36-3.2-0.6c-0.43-0.11-0.71-0.23-0.83-0.36c-0.12-0.13-0.18-0.32-0.18-0.58V62.81
		c0-0.17,0.07-0.32,0.21-0.45c0.14-0.13,0.3-0.19,0.47-0.19h3.92c0.17,0,0.32,0.06,0.45,0.19c0.13,0.13,0.19,0.28,0.19,0.45v5.6
		c0.47-0.06,0.95-0.12,1.44-0.16c0.49-0.04,0.89-0.06,1.21-0.06c2.74,0,4.78,0.75,6.12,2.23c1.34,1.49,2.01,3.51,2.01,6.05V79
		L829.92,79z M824.67,76.49c0-0.56-0.04-1.08-0.13-1.56c-0.09-0.49-0.24-0.91-0.45-1.26c-0.22-0.35-0.51-0.63-0.87-0.82
		c-0.37-0.19-0.84-0.29-1.42-0.29c-0.39,0-0.83,0.02-1.33,0.05c-0.5,0.03-0.94,0.07-1.33,0.11v10.07c0.3,0.04,0.68,0.09,1.15,0.13
		c0.46,0.04,0.97,0.06,1.51,0.06c0.58,0,1.06-0.1,1.42-0.29c0.37-0.19,0.66-0.47,0.87-0.82c0.22-0.36,0.37-0.78,0.45-1.26
		c0.09-0.48,0.13-1.01,0.13-1.6V76.49L824.67,76.49z M846.17,81.85c0,0.76-0.14,1.47-0.42,2.14c-0.28,0.67-0.7,1.25-1.27,1.73
		c-0.57,0.49-1.29,0.87-2.15,1.15c-0.86,0.28-1.88,0.42-3.07,0.42c-0.45,0-0.93-0.02-1.44-0.05c-0.51-0.03-1.03-0.08-1.55-0.15
		c-0.52-0.06-1.04-0.14-1.53-0.23c-0.5-0.09-0.94-0.18-1.35-0.29c-0.41-0.11-0.61-0.36-0.61-0.74v-2.62c0-0.17,0.05-0.32,0.16-0.44
		c0.11-0.12,0.26-0.18,0.45-0.18h0.13c0.43,0.06,0.91,0.12,1.44,0.18c0.53,0.05,1.05,0.1,1.57,0.15c0.52,0.04,1,0.08,1.44,0.1
		c0.44,0.02,0.79,0.03,1.05,0.03c0.78,0,1.29-0.1,1.54-0.31c0.25-0.21,0.37-0.52,0.37-0.96c0-0.24-0.09-0.46-0.26-0.66
		c-0.17-0.21-0.49-0.44-0.94-0.7l-4.21-2.43c-0.91-0.52-1.61-1.18-2.12-1.99c-0.51-0.81-0.76-1.74-0.76-2.8
		c0-1.64,0.54-2.89,1.62-3.74c1.08-0.85,2.75-1.28,4.98-1.28c1.27,0,2.35,0.07,3.22,0.21c0.87,0.14,1.72,0.32,2.54,0.53
		c0.41,0.11,0.62,0.36,0.62,0.74v2.62c0,0.41-0.18,0.61-0.55,0.61h-0.1c-0.24-0.02-0.57-0.06-1-0.11c-0.43-0.05-0.9-0.1-1.41-0.15
		c-0.51-0.04-1.03-0.08-1.55-0.11c-0.53-0.03-1-0.05-1.41-0.05c-0.63,0-1.07,0.06-1.33,0.19c-0.26,0.13-0.39,0.38-0.39,0.74
		c0,0.24,0.09,0.44,0.26,0.6c0.17,0.16,0.42,0.34,0.74,0.53l4.01,2.3c0.67,0.39,1.21,0.78,1.63,1.18c0.42,0.4,0.76,0.81,1,1.23
		c0.25,0.42,0.42,0.85,0.5,1.28C846.12,80.98,846.17,81.41,846.17,81.85L846.17,81.85z"/>
	<path class="st3" d="M667.08,95.72h29.56c0.51,0,0.93-0.06,1.27-0.17c0.54-0.17,0.91-0.48,1.14-0.86c0.26-0.43,0.38-1,0.38-1.64
		c0-0.62-0.11-1.28-0.3-1.93l-11.96-18.08c-0.15-0.22-0.22-0.47-0.22-0.72h0v-6.02c0-0.72,0.59-1.31,1.31-1.31h0.2
		c0.22,0,0.42-0.09,0.57-0.24c0.01-0.01,0.03-0.03,0.04-0.04c0.12-0.14,0.2-0.33,0.2-0.53c0-0.22-0.09-0.42-0.24-0.57
		c-0.01-0.01-0.03-0.03-0.04-0.04c-0.14-0.12-0.32-0.19-0.52-0.19h-13.2c-0.22,0-0.42,0.09-0.57,0.23l0,0
		c-0.15,0.15-0.24,0.35-0.24,0.57c0,0.22,0.09,0.42,0.24,0.57c0.01,0.01,0.03,0.03,0.04,0.04c0.14,0.12,0.32,0.19,0.52,0.19h0.2
		c0.72,0,1.31,0.59,1.31,1.31v6.02c0,0.3-0.1,0.57-0.27,0.79l-11.91,18c-0.19,0.65-0.3,1.31-0.3,1.93c0,0.64,0.12,1.21,0.38,1.64
		c0.23,0.39,0.6,0.69,1.14,0.86C666.15,95.66,666.57,95.72,667.08,95.72L667.08,95.72z"/>
	<path class="st6" d="M672.36,82.36h5.41c0.11,0.32,0.25,0.62,0.43,0.9c0.28,0.45,0.64,0.84,1.06,1.16v4.32
		c0,0.71,0.29,1.36,0.76,1.83l0,0c0.47,0.47,1.12,0.76,1.83,0.76l0,0c0.72,0,1.37-0.29,1.84-0.76l0,0c0.47-0.47,0.77-1.12,0.77-1.84
		v-4.31c0.42-0.32,0.78-0.71,1.06-1.16c0.18-0.28,0.32-0.58,0.43-0.9h5.41l6.26,9.46c0.05,0.19,0.09,0.37,0.12,0.55
		c0.03,0.21,0.05,0.44,0.05,0.69c0,0.22-0.02,0.4-0.05,0.55c-0.02,0.11-0.05,0.19-0.09,0.25c-0.01,0.02-0.03,0.03-0.05,0.05
		c-0.05,0.04-0.11,0.07-0.17,0.09c-0.08,0.02-0.18,0.04-0.3,0.06c-0.11,0.01-0.27,0.02-0.48,0.02l-29.56,0
		c-0.21,0-0.37-0.01-0.48-0.02c-0.12-0.02-0.22-0.04-0.3-0.06c-0.07-0.02-0.13-0.05-0.17-0.09c-0.03-0.02-0.04-0.04-0.05-0.05
		c-0.03-0.06-0.06-0.14-0.09-0.25c-0.03-0.15-0.05-0.33-0.05-0.55c0-0.25,0.02-0.48,0.05-0.69c0.03-0.17,0.07-0.36,0.12-0.55
		L672.36,82.36L672.36,82.36z"/>
	<path class="st5" d="M681.86,77.92c1.69,0,3.05,1.37,3.05,3.05c0,1.21-0.7,2.25-1.71,2.75v5.01c0,0.74-0.6,1.34-1.34,1.34l0,0
		c-0.74,0-1.34-0.6-1.34-1.34v-5.01c-1.02-0.5-1.72-1.54-1.72-2.75C678.81,79.29,680.17,77.92,681.86,77.92L681.86,77.92z"/>
</g>
<g>
	<path class="st7" d="M80.57,62.98l2.28-4.63c-13.6,3.07-31.82-8.18-51.17,2.47C62.26,55.2,66.65,65.44,80.57,62.98L80.57,62.98z
		 M68.08,88.19l2.33-4.69c-13.69,3.74-32.26-8.19-52,2.67C49.54,80.45,53.52,91.18,68.08,88.19L68.08,88.19z M65.05,68.57
		l-5.77-5.05c-9.54-1.42-20.05-2.35-30.92,3.64C48.64,63.43,57.39,66.68,65.05,68.57L65.05,68.57z M71.21,81.89l2.32-4.68
		c-13.67,3.58-32.15-8.19-51.81,2.62C52.73,74.13,56.8,84.75,71.21,81.89L71.21,81.89z M73.27,75.77L68.4,71.5
		c-12.42-0.76-27.5-6.72-43.35,2C55.13,67.96,59.86,77.79,73.27,75.77L73.27,75.77z"/>
	<polygon class="st8" points="82.06,82.57 84.56,77.54 82.82,78.7 78.12,81.83 80.63,76.78 81.59,74.85 79.96,73.43 75.56,69.57 
		82.44,69.59 84.19,69.59 84.97,68.02 88.04,61.78 88.72,67.14 88.93,68.73 91.18,64.19 89.65,52.18 82.45,66.78 68.07,66.74 
		78.12,75.54 70.94,89.99 82.06,82.57 	"/>
	<path class="st8" d="M106.46,64.52l-1.21-6.81l-3.34,6.81H106.46L106.46,64.52z M112.4,72h-4.79l-0.7-3.87h-6.59L98.38,72h-4.6
		l10.12-19.38h4.54L112.4,72L112.4,72z M130.63,72c0,0-0.11-0.34-0.11-0.98c0-0.34,0.03-0.73,0.11-1.21l0.84-5.33
		c0.06-0.39,0.11-0.76,0.11-1.15c0-0.95-0.31-1.71-1.4-1.71c-1.71,0-2.41,1.85-2.64,3.28L126.42,72h-4.37l1.21-7.51
		c0.06-0.39,0.11-0.76,0.11-1.15c0-0.95-0.34-1.71-1.4-1.71c-1.71,0-2.41,1.85-2.64,3.28L118.21,72h-4.37l1.88-11.83
		c0.06-0.42,0.08-0.79,0.08-1.12c0-0.53-0.06-0.87-0.06-0.87h4.29c0,0,0.08,0.31,0.08,0.93c0,0.28-0.03,0.64-0.08,1.04h0.03
		c0.93-1.26,2.41-2.22,4.04-2.22c1.74,0,3.17,0.62,3.56,2.47c1.15-1.6,2.64-2.47,4.6-2.47c2.66,0,3.87,1.49,3.87,4.07
		c0,0.56-0.06,1.12-0.14,1.71L135,69.98c-0.06,0.39-0.08,0.76-0.08,1.04c0,0.62,0.08,0.98,0.08,0.98H130.63L130.63,72z
		 M146.36,60.59c-1.96,0-3.9,1.82-4.18,3.17c0.73,0.06,1.37,0.08,1.99,0.08c1.46,0,3.87-0.34,3.87-2.07
		C148.05,60.9,147.23,60.59,146.36,60.59L146.36,60.59z M145.55,66.68c-1.15,0-2.38-0.14-3.73-0.48v0.2c0,1.82,1.26,2.64,2.94,2.64
		c1.68,0,3.08-0.67,4.21-1.37l1.4,2.38c-1.96,1.54-3.93,2.27-6.73,2.27c-3.59,0-6.11-2.02-6.11-5.75c0-5.1,4.29-8.64,8.75-8.64
		c2.78,0,5.55,0.95,5.55,3.84C151.83,64.68,149.34,66.68,145.55,66.68L145.55,66.68z M162.76,62.33h-0.22
		c-0.45-0.25-1.01-0.34-1.51-0.34c-2.13,0-2.97,2.1-3.22,3.87L156.81,72h-4.37l1.85-11.78c0.06-0.42,0.08-0.84,0.08-1.18
		c0-0.53-0.06-0.87-0.06-0.87h4.35c0,0,0.08,0.31,0.08,0.93c0,0.28-0.03,0.7-0.11,1.04c0.81-1.29,2.07-2.22,3.67-2.22
		c0.39,0,0.98,0.06,1.32,0.25L162.76,62.33L162.76,62.33z M169.01,56.64c-1.18,0-2.13-0.67-2.13-1.93c0-1.63,1.29-2.78,2.89-2.78
		c1.21,0,2.13,0.67,2.13,1.93C171.9,55.46,170.61,56.64,169.01,56.64L169.01,56.64z M164.77,72c0,0-0.11-0.34-0.11-0.98
		c0-0.34,0.03-0.73,0.11-1.21l1.49-9.62c0.06-0.42,0.08-0.81,0.08-1.15c0-0.53-0.06-0.87-0.06-0.87h4.35c0,0,0.08,0.31,0.08,0.93
		c0,0.34-0.03,0.76-0.11,1.26l-1.49,9.62c-0.06,0.39-0.08,0.76-0.08,1.04c0,0.62,0.08,0.98,0.08,0.98H164.77L164.77,72z
		 M183.05,62.86c-0.7-0.93-1.96-1.35-3.08-1.35c-2.3,0-3.9,2.05-3.9,4.26c0,1.77,1.15,2.8,2.89,2.8c1.21,0,2.66-0.5,3.62-1.26
		l0.39,3.42c-1.35,1.09-3.65,1.57-5.3,1.57c-3.5,0-6.03-2.33-6.03-5.86c0-4.71,3.56-8.52,8.36-8.52c1.37,0,3.56,0.39,4.57,1.46
		L183.05,62.86L183.05,62.86z M192.82,61.49c-2.3,0-3.7,2.19-3.7,4.32c0,1.6,0.93,2.78,2.58,2.78c2.3,0,3.7-2.19,3.7-4.32
		C195.4,62.67,194.47,61.49,192.82,61.49L192.82,61.49z M196.27,58.18h4.37l-1.88,11.8c-0.06,0.39-0.08,0.76-0.08,1.04
		c0,0.62,0.08,0.98,0.08,0.98h-4.07c0,0-0.11-0.34-0.11-0.98c0-0.22,0-0.5,0.03-0.81l-0.03,0c-1.18,1.35-2.92,2.1-4.71,2.1
		c-3.39,0-5.27-2.44-5.27-5.72c0-4.26,2.78-8.69,7.54-8.69c1.46,0,3.14,0.53,3.9,1.88C196.1,59.24,196.18,58.71,196.27,58.18
		L196.27,58.18z M210.42,72c0,0-0.11-0.34-0.11-0.98c0-0.34,0.03-0.73,0.11-1.21l0.78-5.02c0.08-0.48,0.14-0.93,0.14-1.37
		c0-1.15-0.45-1.79-1.65-1.79c-1.96,0-2.61,1.88-2.86,3.53L205.74,72h-4.37l1.85-11.75c0.06-0.42,0.08-0.87,0.08-1.21
		c0-0.53-0.06-0.87-0.06-0.87h4.32c0,0,0.08,0.31,0.08,0.93c0,0.28-0.03,0.64-0.08,1.04h0.03c1.01-1.35,2.5-2.22,4.21-2.22
		c2.75,0,4.09,1.32,4.09,4.04c0,0.64-0.06,1.26-0.17,1.91l-0.98,6.11c-0.06,0.39-0.08,0.76-0.08,1.04c0,0.62,0.08,0.98,0.08,0.98
		H210.42L210.42,72z"/>
	<path class="st8" d="M108.27,76.02l-7.79,7.71l5.19,11.64h-5.3L97,87.32l-1.71,1.68l-1.01,6.37h-4.37l3.06-19.35h4.37l-1.09,7.01
		l6.79-7.01H108.27L108.27,76.02z M114.78,83.96c-1.96,0-3.9,1.82-4.18,3.17c0.73,0.06,1.37,0.08,1.99,0.08
		c1.46,0,3.87-0.34,3.87-2.07C116.46,84.27,115.65,83.96,114.78,83.96L114.78,83.96z M113.96,90.04c-1.15,0-2.38-0.14-3.73-0.48
		l0,0.2c0,1.82,1.26,2.64,2.94,2.64c1.68,0,3.08-0.67,4.21-1.37l1.4,2.38c-1.96,1.54-3.93,2.27-6.73,2.27
		c-3.59,0-6.11-2.02-6.11-5.75c0-5.1,4.29-8.64,8.75-8.64c2.78,0,5.55,0.95,5.55,3.84C120.24,88.05,117.75,90.04,113.96,90.04
		L113.96,90.04z M136.56,81.55l-8.3,15.11c-1.12,2.02-2.3,4.01-4.99,4.01c-1.07,0-2.64-0.2-3.62-0.67l1.4-3.36
		c0.48,0.2,1.07,0.36,1.57,0.36c1.26,0,1.51-1.07,2.08-2.08l-3.17-13.38h4.57l1.6,8.8l4.37-8.8H136.56L136.56,81.55z M154.09,81.41
		c-1.07-1.23-2.75-1.96-4.04-1.96c-1.29,0-2.58,0.56-2.58,1.96c0,2.58,7.49,1.96,7.49,7.18c0,5.22-4.74,7.12-8.1,7.12
		c-2.58,0-4.82-1.18-6.34-2.97l2.64-3.31c1.01,1.35,2.86,2.47,4.49,2.47c1.63,0,2.8-0.84,2.8-2.24c0-2.69-7.46-1.91-7.46-7.01
		c0-4.6,3.42-6.9,7.74-6.9c3.81,0,5.69,2.44,5.69,2.44L154.09,81.41L154.09,81.41z M161.14,89.26c-0.06,0.34-0.08,0.65-0.08,0.98
		c0,1.09,0.45,1.71,1.6,1.71c1.71,0,2.47-1.57,2.69-3.06l1.15-7.35h4.37l-1.88,11.81c-0.06,0.39-0.08,0.76-0.08,1.04
		c0,0.62,0.08,0.98,0.08,0.98h-4.21c0,0-0.11-0.34-0.11-0.98v-0.53c-0.98,1.15-2.61,1.82-4.12,1.82c-2.61,0-4.04-1.26-4.04-3.9
		c0-0.64,0.06-1.26,0.17-1.91l0.98-6.22c0.08-0.48,0.08-0.9,0.08-1.23c0-0.53-0.06-0.87-0.06-0.87l4.35,0c0,0,0.08,0.31,0.08,0.93
		c0,0.34-0.03,0.81-0.11,1.32L161.14,89.26L161.14,89.26z M180.63,84.88c-2.33,0-3.73,2.19-3.73,4.32c0,1.6,0.93,2.78,2.61,2.78
		c2.3,0,3.7-2.19,3.7-4.32C183.21,86.06,182.28,84.88,180.63,84.88L180.63,84.88z M171.18,100.45c0,0-0.11-0.34-0.11-0.98
		c0-0.34,0.03-0.73,0.11-1.21l2.33-14.69c0.06-0.42,0.08-0.81,0.08-1.15c0-0.53-0.06-0.87-0.06-0.87l4.15,0c0,0,0.08,0.31,0.08,0.93
		c0,0.25-0.03,0.53-0.08,0.84h0.03c1.23-1.32,2.89-2.02,4.71-2.02c3.39,0,5.27,2.44,5.27,5.69c0,4.29-2.94,8.72-7.57,8.72
		c-1.54,0-3.08-0.53-3.84-1.99l-0.76,4.71c-0.06,0.39-0.08,0.76-0.08,1.04c0,0.62,0.08,0.98,0.08,0.98H171.18L171.18,100.45z
		 M197.5,84.88c-2.33,0-3.73,2.19-3.73,4.32c0,1.6,0.93,2.78,2.61,2.78c2.3,0,3.7-2.19,3.7-4.32
		C200.08,86.06,199.16,84.88,197.5,84.88L197.5,84.88z M188.06,100.45c0,0-0.11-0.34-0.11-0.98c0-0.34,0.03-0.73,0.11-1.21
		l2.33-14.69c0.06-0.42,0.08-0.81,0.08-1.15c0-0.53-0.06-0.87-0.06-0.87l4.15,0c0,0,0.08,0.31,0.08,0.93c0,0.25-0.03,0.53-0.08,0.84
		h0.03c1.23-1.32,2.89-2.02,4.71-2.02c3.39,0,5.27,2.44,5.27,5.69c0,4.29-2.94,8.72-7.57,8.72c-1.54,0-3.08-0.53-3.84-1.99
		l-0.76,4.71c-0.06,0.39-0.08,0.76-0.08,1.04c0,0.62,0.08,0.98,0.08,0.98H188.06L188.06,100.45z M205.8,95.37
		c0,0-0.11-0.34-0.11-0.98c0-0.34,0.03-0.73,0.11-1.21l2.38-15.14c0.06-0.42,0.08-0.81,0.08-1.15c0-0.53-0.06-0.87-0.06-0.87h4.35
		c0,0,0.08,0.31,0.08,0.93c0,0.34-0.03,0.76-0.11,1.26l-2.38,15.14c-0.06,0.39-0.08,0.76-0.08,1.04c0,0.62,0.08,0.98,0.08,0.98
		H205.8L205.8,95.37z M228.6,81.55l-8.3,15.11c-1.12,2.02-2.3,4.01-4.99,4.01c-1.07,0-2.64-0.2-3.62-0.67l1.4-3.36
		c0.48,0.2,1.07,0.36,1.57,0.36c1.26,0,1.51-1.07,2.08-2.08l-3.17-13.38h4.57l1.6,8.8l4.37-8.8H228.6L228.6,81.55z"/>
</g>
<text transform="matrix(1 0 0 1 315.665 69.5107)"><tspan x="0" y="0" class="st9 st10">Creative Services</tspan><tspan x="26.55" y="28" class="st11 st10">Request Form</tspan></text>
<line class="st12" x1="287.65" y1="39.94" x2="571.14" y2="39.94"/>
<line class="st12" x1="324.72" y1="110.27" x2="534.07" y2="110.27"/>
</svg>
